<?xml version="1.0" encoding="UTF-8" standalone="no"?>
<!-- Created with Inkscape (http://www.inkscape.org/) -->

<svg
   width="31.383209mm"
   height="31.383209mm"
   viewBox="0 0 31.383209 31.383209"
   version="1.1"
   id="svg5"
   xml:space="preserve"
   xmlns:inkscape="http://www.inkscape.org/namespaces/inkscape"
   xmlns:sodipodi="http://sodipodi.sourceforge.net/DTD/sodipodi-0.dtd"
   xmlns="http://www.w3.org/2000/svg"
   xmlns:svg="http://www.w3.org/2000/svg"><sodipodi:namedview
     id="namedview7"
     pagecolor="#505050"
     bordercolor="#eeeeee"
     borderopacity="1"
     inkscape:showpageshadow="0"
     inkscape:pageopacity="0"
     inkscape:pagecheckerboard="0"
     inkscape:deskcolor="#505050"
     inkscape:document-units="mm"
     showgrid="false" /><defs
     id="defs2" /><g
     inkscape:label="Layer 1"
     inkscape:groupmode="layer"
     id="layer1"
     transform="translate(-280.033,-63.901259)"><rect
       style="fill:none;stroke-width:0.686001"
       id="rect464"
       width="31.383205"
       height="31.383205"
       x="280.03299"
       y="63.90126"
       inkscape:export-filename="3D.svg"
       inkscape:export-xdpi="96"
       inkscape:export-ydpi="96" /><g
       id="g658"><path
         style="fill:#333333;stroke-width:0.264583"
         d="m 288.36318,92.815329 c -2.67365,-1.352225 -3.62135,-1.955435 -3.51355,-2.23637 0.10613,-0.276553 -0.53817,-0.727628 -2.29196,-1.604602 -1.34176,-0.670949 -2.47076,-1.24727 -2.50888,-1.280713 -0.0381,-0.03344 0.0897,-0.761027 0.28408,-1.616853 l 0.3534,-1.556049 2.43066,-1.060119 2.43065,-1.06012 -1.9651,-0.988758 -1.96511,-0.988758 0.34294,-1.475289 c 0.18862,-0.811409 0.40122,-1.533568 0.47245,-1.604797 0.0712,-0.07123 1.42504,-0.69912 3.00846,-1.395313 l 2.87896,-1.265806 0.56893,-2.23051 c 0.31292,-1.226781 0.6335,-2.538602 0.7124,-2.915158 0.11096,-0.529506 0.50418,-0.846526 1.73531,-1.399024 l 1.59184,-0.714377 1.32179,0.669802 1.32179,0.669802 0.2751,-0.990569 c 0.1513,-0.544814 0.27576,-1.145653 0.27657,-1.3352 7.9e-4,-0.189546 0.76462,-0.701748 1.69735,-1.138226 l 1.69588,-0.793596 3.72808,1.867597 c 2.91238,1.458966 3.72808,1.982346 3.72808,2.392044 0,0.392249 0.55023,0.799721 2.18282,1.61649 1.20054,0.600623 2.21082,1.116134 2.24505,1.145579 0.0342,0.02944 -0.0833,0.74765 -0.26129,1.596011 l -0.32354,1.542474 -1.72308,0.779796 c -0.94769,0.428887 -2.02074,0.898142 -2.38454,1.042787 -0.6321,0.251319 -0.58305,0.302769 1.10507,1.159177 0.97159,0.492902 1.82418,0.989458 1.89464,1.103457 0.0704,0.114 -0.0188,0.860901 -0.19826,1.659781 l -0.32636,1.452509 -2.49432,1.11157 c -1.37187,0.611363 -2.68179,1.22441 -2.91094,1.362329 -0.26506,0.159539 -0.63934,1.312088 -1.02884,3.168227 l -0.61222,2.917468 -1.51778,0.68114 c -1.82389,0.81851 -1.86136,0.820307 -3.17141,0.151975 -0.57049,-0.291042 -1.08965,-0.529167 -1.15369,-0.529167 -0.064,0 -0.25837,0.591616 -0.43184,1.314701 -0.29825,1.243246 -0.39489,1.351095 -1.77815,1.984377 -0.80452,0.36832 -1.5972,0.66344 -1.76152,0.65581 -0.16431,-0.008 -1.94628,-0.84711 -3.95992,-1.865529 z m 6.82005,-0.96488 c 0.0954,-0.400182 0.22781,-0.911931 0.29414,-1.137221 0.0871,-0.295855 -0.4732,-0.699133 -2.01753,-1.452076 l -2.13814,-1.042464 0.16796,-1.193755 c 0.0924,-0.656566 0.22695,-1.396508 0.29905,-1.644319 0.0938,-0.322315 -0.16931,-0.603821 -0.9243,-0.988986 -1.22937,-0.627176 -1.05698,-0.879848 -1.84706,2.707341 l -0.51233,2.326127 3.08258,1.562758 c 1.69542,0.859518 3.15897,1.568935 3.25233,1.576481 0.0934,0.0075 0.24785,-0.313704 0.3433,-0.713886 z m -8.35779,-2.065573 1.02951,-0.41193 0.61895,-2.788552 c 0.34043,-1.533705 0.74276,-2.945987 0.89408,-3.138408 0.36678,-0.466423 3.84699,-2.012934 3.84699,-1.709502 0,0.258061 -0.98693,4.601747 -1.21401,5.34311 -0.12663,0.413432 -0.0226,0.406185 1.14705,-0.0799 l 1.28632,-0.534569 0.63437,-3.023024 0.63436,-3.023023 2.85998,-1.262698 c 1.57299,-0.694485 2.9071,-1.441293 2.96469,-1.659575 0.0576,-0.218281 0.17595,-0.717768 0.26301,-1.109972 l 0.15828,-0.713097 -2.67945,1.188002 c -1.47369,0.653402 -2.73621,1.131232 -2.8056,1.061846 -0.14344,-0.143439 0.69489,-4.197518 0.94987,-4.593503 0.0917,-0.142431 1.32688,-0.768149 2.74481,-1.390484 1.41793,-0.622335 2.68411,-1.263664 2.81372,-1.425176 0.12961,-0.161511 0.31836,-0.680416 0.41943,-1.153121 l 0.18377,-0.859464 -1.1454,0.496869 c -0.62998,0.273278 -1.84832,0.810407 -2.70743,1.19362 -0.85912,0.383213 -1.6149,0.643879 -1.67952,0.579258 -0.0646,-0.06462 0.14392,-1.264989 0.46342,-2.667486 0.3195,-1.402496 0.53662,-2.59428 0.48249,-2.648408 -0.0541,-0.05413 -0.58816,0.120852 -1.18675,0.388846 -1.08152,0.484212 -1.09183,0.50245 -1.64725,2.91475 -0.3074,1.335118 -0.55891,2.603863 -0.55891,2.819432 0,0.346425 -3.89477,2.376094 -4.12251,2.148352 -0.0462,-0.0462 0.19014,-1.300505 0.52521,-2.787341 0.33506,-1.486837 0.53739,-2.694509 0.44961,-2.683717 -0.0878,0.01079 -0.6309,0.22763 -1.20694,0.481862 l -1.04734,0.46224 -0.67464,2.884926 -0.67464,2.884926 -3.03813,1.369999 c -2.35852,1.063532 -3.07717,1.50892 -3.21259,1.991024 -0.43924,1.563677 -0.37307,1.569449 2.61707,0.22828 1.56435,-0.701656 2.89286,-1.228773 2.95225,-1.17137 0.20016,0.193477 -0.83177,4.593896 -1.13277,4.830431 -0.16397,0.12885 -1.56671,0.796319 -3.11721,1.48327 -2.68911,1.191414 -2.82714,1.2919 -2.99362,2.179349 -0.096,0.511691 -0.1371,0.966166 -0.0913,1.009949 0.0458,0.04378 1.36313,-0.494482 2.92748,-1.196139 1.9783,-0.887325 2.84427,-1.164579 2.84427,-0.910635 0,0.200809 -0.23813,1.386359 -0.52917,2.634557 -0.73816,3.165772 -0.79539,2.986228 0.75422,2.366198 z m 2.94995,-8.942967 c 0,-0.07158 0.24293,-1.180928 0.53984,-2.465226 l 0.53985,-2.335088 1.90755,-0.827029 c 1.04915,-0.454866 1.95073,-0.788714 2.00351,-0.741886 0.0528,0.04683 -0.0478,0.716649 -0.22349,1.488488 -0.78869,3.464616 -0.69858,3.303177 -2.23667,4.007335 -1.64725,0.754137 -2.53059,1.059014 -2.53059,0.873406 z m 2.72979,-1.532855 c 1.30175,-0.68518 1.27693,-1.382559 -0.0737,-2.07161 l -1.04809,-0.534698 -0.24829,0.992341 c -0.63991,2.557521 -0.6446,2.464358 0.10957,2.177623 0.37566,-0.142827 0.9429,-0.396472 1.26053,-0.563656 z m 9.71674,8.207938 c 0.28403,-1.218239 0.56473,-2.421631 0.62376,-2.674204 0.0835,-0.357005 -0.63385,-0.841934 -3.22251,-2.178577 -1.83143,-0.945645 -3.3635,-1.685713 -3.40462,-1.6446 -0.1497,0.149704 -1.22395,5.488528 -1.12307,5.581478 0.23646,0.217885 6.46021,3.270256 6.53194,3.203522 0.0429,-0.03995 0.31046,-1.069379 0.5945,-2.287619 z m 6.94189,-7.777902 c 0.15329,-0.798151 0.14405,-0.805015 -3.25705,-2.42071 l -3.41079,-1.620289 -0.22089,1.097794 -0.22089,1.097793 3.31945,1.737978 c 3.57226,1.870341 3.45224,1.866938 3.79017,0.107434 z m -8.71545,-4.017828 c 0.18222,-0.112331 -2.20496,-1.664042 -2.55999,-1.664042 -0.0593,0 -0.18254,0.446484 -0.27382,0.992188 -0.0913,0.545703 -0.23932,1.259613 -0.32899,1.586468 l -0.16302,0.59428 1.55195,-0.686041 c 0.85356,-0.377322 1.65181,-0.747606 1.77387,-0.822853 z m 10.33817,-3.122142 c 0.16722,-0.784591 0.13065,-0.816157 -2.41703,-2.086799 -1.42275,-0.709587 -2.96701,-1.451198 -3.43169,-1.648025 l -0.84486,-0.357867 -0.22872,1.12175 -0.22872,1.121749 3.32254,1.608829 c 2.11842,1.025772 3.38346,1.505211 3.49062,1.322917 0.0924,-0.157252 0.24447,-0.644401 0.33786,-1.082554 z m -5.64491,-4.220106 c 0.71638,0.36302 1.30252,0.566529 1.30252,0.452241 0,-0.114287 -1.49162,-0.950787 -3.3147,-1.858887 -2.27491,-1.133165 -3.35086,-1.546609 -3.42997,-1.318015 -0.17178,0.4963 -0.92825,3.90057 -0.92825,4.177286 0,0.131725 1.14027,-0.289737 2.53394,-0.936581 l 2.53394,-1.176081 z"
         id="path304" /><path
         style="fill:#ff6600;stroke-width:1.07511"
         d="m 1079.5824,340.04402 c -0.1333,-0.21572 0.5867,-4.18091 1.6001,-8.81153 1.0134,-4.63062 1.966,-9.02575 2.1169,-9.76696 0.2646,-1.3 0.2267,-1.34764 -1.0718,-1.34764 -0.7752,0 -5.2673,1.67082 -10.591,3.93927 -5.0846,2.1666 -9.4597,3.93928 -9.7224,3.93928 -0.3316,0 -0.3941,-0.60208 -0.2047,-1.96964 0.5856,-4.22745 1.37,-4.97627 8.6106,-8.21995 10.4897,-4.69919 14.7546,-6.90228 15.1833,-7.84306 0.7408,-1.62604 3.4144,-12.73293 3.6842,-15.30525 l 0.2564,-2.44568 -1.1385,0.28575 c -0.6262,0.15716 -5.0525,1.95746 -9.8362,4.00066 -8.2615,3.52859 -10.3817,4.18084 -10.8943,3.35143 -0.1235,-0.19992 0.055,-1.3055 0.397,-2.45685 0.9876,-3.32567 2.2735,-4.14753 16.6736,-10.65689 6.5918,-2.97973 7.1776,-3.3327 7.4979,-4.51836 0.1911,-0.70737 1.346,-5.61639 2.5664,-10.90894 l 2.2189,-9.6228 3.9206,-1.68854 c 2.1564,-0.92869 4.0216,-1.58757 4.145,-1.46417 0.2571,0.25714 -0.5388,4.76995 -2.4067,13.64473 -0.7147,3.39581 -1.1469,6.32675 -0.9604,6.51321 0.6869,0.68693 10.1055,-3.73185 14.0177,-6.57645 1.5074,-1.09606 1.5943,-1.29872 2.5314,-5.90362 1.8329,-9.00646 3.1398,-13.70846 4.141,-14.89825 0.868,-1.03158 4.2179,-2.79858 6.725,-3.54731 1.1239,-0.33567 1.1495,-0.61921 -0.7659,8.49371 -2.5464,12.11501 -2.5392,11.86247 -0.3151,11.13115 0.7515,-0.24712 5.2431,-2.13262 9.9813,-4.19 4.7382,-2.05737 8.7097,-3.64586 8.8256,-3.52997 0.2795,0.27947 -0.5127,3.75851 -1.2667,5.56313 -0.5384,1.2886 -1.2241,1.73277 -6.728,4.35794 -14.9613,7.13606 -14.6405,6.96305 -15.0955,8.14163 -0.8026,2.0789 -2.8452,11.46417 -3.1207,14.33886 l -0.2729,2.84722 0.9971,-0.29753 c 1.4055,-0.41945 11.9651,-4.80883 15.8848,-6.60297 1.8025,-0.82506 3.3629,-1.41448 3.4675,-1.30982 0.1047,0.10465 -0.124,1.60319 -0.5082,3.33009 l -0.6986,3.13983 -3.0917,1.80981 c -1.7004,0.9954 -6.5851,3.35858 -10.8549,5.25151 -4.2698,1.89293 -7.8252,3.48526 -7.9011,3.53851 -0.076,0.0532 -1.1529,5.01069 -2.3934,11.01653 -1.2405,6.00584 -2.3963,11.17523 -2.5684,11.48753 -0.3269,0.59325 -8.3437,3.95742 -8.6649,3.63618 -0.1013,-0.10133 0.7521,-4.26083 1.8964,-9.24334 1.1444,-4.98251 2.2094,-9.78555 2.3668,-10.67342 0.286,-1.61382 0.2857,-1.61421 -0.9115,-1.32025 -4.6024,1.13008 -13.1401,5.52205 -14.006,7.205 -0.7684,1.49342 -2.1527,6.69524 -3.98,14.95558 l -1.5013,6.7862 -3.4787,1.40334 c -3.6978,1.49174 -4.3705,1.63477 -4.756,1.01111 z m 20.6468,-35.69105 c 6.8971,-2.72428 9.0451,-4.04461 10.1284,-6.22563 1.1211,-2.25701 3.9369,-14.05682 3.7559,-15.73931 l -0.1281,-1.19123 -2.1789,0.77058 c -2.1801,0.77103 -12.1789,4.96566 -12.5098,5.24803 -0.2393,0.20428 -4.1479,17.16991 -4.1648,18.07836 -0.019,1.00844 0.3212,0.94566 5.0973,-0.9408 z"
         id="path644"
         transform="scale(0.26458333)" /><path
         style="fill:#ff6600;stroke-width:1.07511"
         d="m 1166.6472,276.20112 c -4.3236,-1.88312 -18.4391,-8.59363 -18.7676,-8.92214 -0.085,-0.0847 0.031,-0.8725 0.2563,-1.75075 0.2256,-0.87826 0.6213,-2.65519 0.8793,-3.94873 l 0.469,-2.3519 2.1543,0.88363 c 1.1848,0.48599 6.5808,3.0825 11.991,5.77001 6.7149,3.33558 10.0561,5.22104 10.5277,5.94083 0.6461,0.98606 0.6439,1.22829 -0.035,3.73478 -0.6632,2.45004 -0.8196,2.6782 -1.8198,2.65561 -0.6019,-0.0136 -3.1469,-0.9187 -5.6556,-2.01134 z"
         id="path646"
         transform="scale(0.26458333)" /><path
         style="fill:#ff6600;stroke-width:1.07511"
         d="m 1158.2802,302.87106 c -10.5034,-5.38043 -16.3052,-8.51321 -16.3056,-8.80439 -5e-4,-0.43129 1.3564,-7.3119 1.4708,-7.45815 0.1368,-0.17496 12.4153,5.60012 18.9541,8.9149 2.9092,1.4748 5.489,3.05422 5.7328,3.50982 0.4964,0.92748 0.1802,3.54533 -0.681,5.63854 -0.8461,2.05662 -2.1351,1.80353 -9.1711,-1.80072 z"
         id="path648"
         transform="scale(0.26458333)" /></g></g></svg>
