<?xml version="1.0" encoding="UTF-8" standalone="no"?>
<!-- Created with Inkscape (http://www.inkscape.org/) -->

<svg
   width="31.383179mm"
   height="31.383209mm"
   viewBox="0 0 31.383179 31.383209"
   version="1.1"
   id="svg5"
   xml:space="preserve"
   xmlns:inkscape="http://www.inkscape.org/namespaces/inkscape"
   xmlns:sodipodi="http://sodipodi.sourceforge.net/DTD/sodipodi-0.dtd"
   xmlns="http://www.w3.org/2000/svg"
   xmlns:svg="http://www.w3.org/2000/svg"><sodipodi:namedview
     id="namedview7"
     pagecolor="#505050"
     bordercolor="#eeeeee"
     borderopacity="1"
     inkscape:showpageshadow="0"
     inkscape:pageopacity="0"
     inkscape:pagecheckerboard="0"
     inkscape:deskcolor="#505050"
     inkscape:document-units="mm"
     showgrid="false" /><defs
     id="defs2" /><g
     inkscape:label="Layer 1"
     inkscape:groupmode="layer"
     id="layer1"
     transform="translate(-314.425,-70.639898)"><rect
       style="fill:none;stroke-width:0.686001"
       id="rect464"
       width="31.383205"
       height="31.383205"
       x="314.42499"
       y="70.6399"
       inkscape:export-filename="branding.svg"
       inkscape:export-xdpi="96"
       inkscape:export-ydpi="96" /><g
       id="g984"><g
         id="g798"
         transform="matrix(0.46646884,0,0,0.46646884,154.98875,46.321785)"><path
           style="fill:#333333;stroke-width:0.264583"
           d="m 352.62519,108.5232 -10.18441,-10.186994 18.56782,-18.567809 18.56781,-18.567816 3.32961,0.656554 3.32961,0.656553 0.2689,-1.072064 c 0.74893,-2.985845 3.05533,-6.018753 5.54476,-7.291337 4.5139,-2.307489 9.60186,-1.54293 13.11566,1.970872 5.93329,5.933292 3.40426,15.975465 -4.63851,18.41838 l -1.77714,0.53979 0.66827,3.310174 0.66828,3.310173 -18.50384,18.505254 c -10.17711,10.17789 -18.56427,18.50525 -18.63812,18.50525 -0.0739,0 -4.71728,-4.58414 -10.3187,-10.18698 z m 27.71488,-9.986744 c 11.88765,-11.886609 17.26481,-17.436437 17.26481,-17.819207 0,-0.594141 -0.9693,-5.415353 -1.10793,-5.510703 -0.0455,-0.03129 -0.81739,-0.254889 -1.71534,-0.496895 -1.49832,-0.403807 -1.71536,-0.405454 -2.63785,-0.02001 -1.89327,0.791056 -3.91987,0.176019 -5.23816,-1.589686 -0.76491,-1.024517 -0.76491,-3.53419 0,-4.558707 1.03661,-1.388417 1.88225,-1.821687 3.55553,-1.821687 2.58888,0 4.10104,1.52358 4.10104,4.132004 0,1.426996 0.0587,1.594397 0.60764,1.732165 0.33419,0.08388 0.67227,0.08786 0.75128,0.0089 0.079,-0.07901 -0.13489,-1.492293 -0.47534,-3.14063 l -0.61899,-2.996976 -6.74688,-1.37766 c -3.71078,-0.757713 -7.04487,-1.382791 -7.40909,-1.389062 -0.52965,-0.0091 -4.13107,3.45776 -17.99053,17.318432 l -17.32832,17.329832 8.72861,8.731624 c 4.80074,4.8024 8.78849,8.73163 8.86166,8.73163 0.0732,0 7.90221,-7.76849 17.39786,-17.263314 z m -24.53775,6.813874 -3.82801,-3.83485 1.97143,-1.984684 c 1.09359,-1.10094 2.35786,-2.11221 2.83925,-2.27108 1.5648,-0.51643 3.36256,0.47034 4.02044,2.20677 0.15477,0.40851 0.60131,0.855044 1.00981,1.009814 1.72364,0.65303 2.65246,2.32536 2.18902,3.94128 -0.16342,0.56984 -0.98432,1.64181 -2.17585,2.84134 -1.05237,1.05944 -1.97746,1.92626 -2.05574,1.92626 -0.0783,0 -1.86495,-1.72568 -3.97035,-3.83485 z m 5.1249,-0.10023 c 0.7741,-0.79276 0.98087,-1.19697 0.91359,-1.78594 -0.0705,-0.61675 -0.23149,-0.77778 -0.84824,-0.84824 -0.58326,-0.0666 -0.98867,0.13508 -1.73378,0.86267 l -0.97252,0.94963 -0.71349,-0.74473 -0.7135,-0.74473 0.93795,-0.90909 c 0.73177,-0.70926 0.92077,-1.08415 0.85978,-1.70544 -0.0658,-0.670174 -0.20406,-0.808704 -0.87276,-0.874384 -0.63391,-0.0623 -1.00659,0.13908 -1.84306,0.995714 l -1.04848,1.07374 2.36671,2.37773 c 1.3017,1.30776 2.43434,2.37774 2.51698,2.37774 0.0826,0 0.60051,-0.4611 1.15082,-1.02467 z m 1.22534,-6.249534 -3.82777,-3.834608 1.84682,-1.882552 c 1.01575,-1.035405 2.23812,-2.051682 2.71638,-2.258396 1.8224,-0.787675 4.04752,0.59722 4.41038,2.744983 0.15687,0.928494 0.33434,1.100058 2.26749,2.191993 1.15352,0.65156 2.10013,1.25168 2.10358,1.33359 0.003,0.0819 -0.32313,0.46453 -0.72574,0.85026 l -0.73202,0.70132 -1.97664,-1.172 -1.97664,-1.17199 -0.81177,0.78679 -0.81176,0.78679 -0.7128,-0.74399 -0.71279,-0.74399 0.93795,-0.909098 c 0.73177,-0.709255 0.92077,-1.084149 0.85978,-1.705435 -0.0658,-0.670169 -0.20406,-0.808704 -0.87276,-0.874379 -0.63398,-0.06226 -1.00663,0.139123 -1.84374,0.996399 l -1.04916,1.074439 3.15434,3.162574 3.15435,3.162594 -0.62912,0.66966 c -0.34601,0.36832 -0.69919,0.66966 -0.78485,0.66966 -0.0857,0 -1.87824,-1.72557 -3.98351,-3.834614 z m 6.34721,-6.352782 -3.83055,-3.837403 2.842,-2.841998 2.842,-2.841997 3.89883,3.898828 3.89882,3.898828 -0.72289,0.722897 -0.7229,0.722895 -1.59122,-1.574615 -1.59122,-1.574617 -1.38076,1.380752 -1.38075,1.380754 1.56747,1.583992 1.56746,1.583991 -0.62713,0.667547 c -0.34492,0.367151 -0.69721,0.667548 -0.78286,0.667548 -0.0857,0 -1.87949,-1.726831 -3.9863,-3.837402 z m 2.25231,-3.57338 1.30544,-1.325364 -0.85333,-0.853329 -0.85333,-0.853329 -1.37805,1.378051 -1.37805,1.37805 0.76706,0.800642 c 0.42189,0.440354 0.83856,0.800643 0.92595,0.800643 0.0874,0 0.74632,-0.596413 1.46431,-1.325364 z m 4.1006,-2.773712 -3.82765,-3.834492 0.57183,-0.571841 0.57184,-0.571839 2.99465,0.580083 c 1.64706,0.319048 3.35184,0.646443 3.78841,0.727546 0.71875,0.13353 0.58183,-0.06741 -1.44929,-2.12679 l -2.24303,-2.274252 0.72413,-0.724123 0.72412,-0.724123 3.89592,3.895922 3.89592,3.895923 -0.57298,0.572987 -0.57299,0.57299 -2.99465,-0.580083 c -1.64706,-0.319048 -3.35184,-0.646443 -3.7884,-0.727546 -0.71905,-0.133583 -0.58334,0.06589 1.44207,2.119543 l 2.23582,2.267005 -0.6283,0.66879 c -0.34556,0.367837 -0.69838,0.668792 -0.78403,0.668792 -0.0857,0 -1.87818,-1.725522 -3.98339,-3.834492 z m 6.35188,-6.348108 -3.82576,-3.832602 1.18335,-1.225436 c 1.41825,-1.468683 2.89753,-2.208175 4.433,-2.21605 3.89988,-0.02 6.68455,4.051199 5.20482,7.609458 -0.35999,0.865656 -2.63546,3.497231 -3.02398,3.497231 -0.0801,0 -1.86726,-1.724671 -3.97143,-3.832601 z m 4.80096,-0.146121 c 0.26777,-0.499298 0.48686,-1.209186 0.48686,-1.577528 0,-1.613514 -1.80265,-3.439583 -3.39547,-3.439583 -0.69269,0 -2.34326,0.71143 -2.59478,1.118406 -0.1873,0.303056 4.40712,5.00965 4.77164,4.888146 0.13468,-0.0449 0.46397,-0.490143 0.73175,-0.989441 z m 3.5647,-7.994287 c -0.60141,-0.6188 -1.12902,-1.109099 -1.17249,-1.089553 -0.32078,0.144261 0.40895,1.51019 0.96951,1.814752 1.24704,0.677548 1.31843,0.422512 0.20298,-0.725199 z m 12.15092,-0.06191 c 1.43896,-0.841351 3.21207,-2.805913 3.90152,-4.322772 0.79556,-1.750334 0.79314,-5.226998 -0.005,-6.98312 -0.79137,-1.741539 -2.7786,-3.770467 -4.54038,-4.63566 -1.27064,-0.624005 -1.81687,-0.730823 -3.73711,-0.730823 -1.92025,0 -2.46647,0.106818 -3.73712,0.730823 -2.49647,1.225997 -4.77709,4.120816 -5.03761,6.394293 l -0.0888,0.775117 4.09001,0.819405 4.09001,0.819404 0.85284,4.09402 c 0.46906,2.251711 0.86098,4.11113 0.87092,4.132041 0.0894,0.188049 2.49698,-0.599466 3.3406,-1.092728 z m -9.14334,-0.810515 c 0,-0.889664 -0.78974,-1.92831 -1.60182,-2.106673 -1.25377,-0.275373 -1.2491,0.03873 0.0198,1.331609 1.23988,1.263346 1.58206,1.430981 1.58206,0.775064 z"
           id="path792" /><path
           style="fill:#ff6600;stroke-width:1.07511"
           d="m 1338.3424,404.26631 -32.7839,-32.78584 53.6985,-53.51131 c 54.0899,-53.90126 71.2413,-70.71105 76.4181,-74.89588 l 2.8159,-2.27629 4.2334,0.7281 c 3.9424,0.67806 38.9663,7.6404 45.9008,9.12455 1.7073,0.36539 3.2206,0.79761 3.3629,0.96047 0.408,0.46703 3.6935,17.18374 3.9798,20.24973 l 0.2579,2.76223 -1.6204,-0.28679 c -2.5315,-0.44806 -2.9175,-1.21364 -3.1929,-6.33271 -0.2818,-5.23769 -0.628,-6.59627 -2.4655,-9.67478 -2.6815,-4.49266 -7.1485,-6.40362 -14.3613,-6.14367 -3.9315,0.14169 -4.6463,0.29018 -6.6247,1.37622 -2.6122,1.43391 -5.6415,4.63918 -6.8625,7.2611 -0.7302,1.56805 -0.8689,2.66043 -0.8689,6.8419 0,5.95096 0.6295,7.72095 3.9142,11.00568 4.6611,4.66108 11.1854,6.13852 17.4931,3.96137 1.7145,-0.59176 3.8185,-1.07593 4.6757,-1.07593 1.5613,0 6.6321,1.14673 10.2717,2.32289 l 1.9407,0.62713 0.8287,3.60458 c 1.0136,4.40939 2.4029,11.47644 2.8927,14.71525 l 0.3634,2.4028 -3.087,3.53105 c -4.5649,5.22135 -13.4366,14.3324 -39.074,40.12813 -43.3295,43.59704 -88.1991,88.16585 -88.761,88.16585 -0.3088,0 -15.3143,-14.75363 -33.3454,-32.78583 z m 29.0168,1.629 c 7.3289,-7.59028 8.8752,-10.1113 8.8898,-14.49326 0.016,-4.92242 -2.7339,-8.99527 -7.6621,-11.34654 -2.5285,-1.20635 -3.9181,-2.64304 -5.3752,-5.55729 -3.1329,-6.26575 -10.3268,-9.22687 -15.7947,-6.50133 -2.3703,1.18147 -7.807,5.86319 -13.4424,11.57561 l -3.9274,3.98109 7.2447,7.29167 c 3.9846,4.01042 10.643,10.65957 14.7965,14.77589 l 7.5519,7.48423 1.9853,-1.66405 c 1.092,-0.91522 3.6721,-3.41094 5.7336,-5.54602 z m 19.2962,-19.28754 c 1.3515,-1.28906 2.4572,-2.54982 2.4572,-2.80168 0,-0.25187 -5.3161,-5.77162 -11.8136,-12.26611 l -11.8137,-11.80817 2.5875,-2.64769 c 3.3651,-3.44352 5.835,-5.03738 7.8059,-5.03738 2.2826,0 3.348,1.06542 3.383,3.38294 0.035,2.34888 -0.8424,3.84491 -4.1955,7.14942 l -2.4824,2.44648 2.5628,2.83642 c 1.4096,1.56003 2.745,2.83823 2.9677,2.84044 0.2227,0.002 1.7155,-1.28528 3.3173,-2.86111 l 2.9124,-2.86512 7.1927,4.31644 c 3.956,2.37404 7.4251,4.31644 7.7092,4.31644 0.6312,0 5.6238,-5.13445 5.6238,-5.78358 0,-0.49126 -3.8213,-3.00618 -9.7988,-6.44891 -4.5987,-2.64863 -5.7755,-3.76805 -6.3515,-6.04156 -1.7335,-6.84358 -5.2335,-10.83249 -10.5483,-12.02188 -3.2341,-0.72377 -5.5763,-0.23341 -8.6393,1.80873 -2.7508,1.83396 -15.2507,13.76161 -15.2507,14.55252 0,0.70729 28.9126,29.27712 29.6284,29.27712 0.1588,0 1.3945,-1.05469 2.7459,-2.34376 z m 24.0503,-24.0503 c 1.3515,-1.28907 2.4572,-2.54626 2.4572,-2.79378 0,-0.24751 -2.6126,-3.06728 -5.8058,-6.26615 l -5.8057,-5.81614 5.0858,-5.07367 5.0859,-5.07367 5.7939,5.80503 c 3.1867,3.19276 5.9885,5.80503 6.2262,5.80503 0.2377,0 1.6365,-1.2151 3.1084,-2.70022 l 2.6762,-2.70023 -14.9181,-14.92246 -14.9182,-14.92246 -10.68,10.67413 c -5.8741,5.87077 -10.6801,10.88044 -10.6801,11.1326 0,0.59836 28.8522,29.19574 29.4559,29.19574 0.2537,0 1.567,-1.05469 2.9184,-2.34375 z m 24.0503,-24.05031 c 1.3515,-1.28907 2.4572,-2.53081 2.4572,-2.75944 0,-0.22862 -3.3587,-3.83034 -7.4639,-8.00382 -4.1051,-4.17347 -7.4639,-7.78325 -7.4639,-8.02173 0,-0.66615 0.5787,-0.58222 14.0985,2.04478 l 12.6471,2.45744 2.2773,-2.26176 2.2773,-2.26175 -14.9215,-14.9259 -14.9216,-14.92589 -2.9011,2.90111 -2.9011,2.90111 6.0145,6.11705 c 8.1564,8.29541 9.7223,9.99869 9.4461,10.27487 -0.1297,0.12977 -6.2432,-0.92314 -13.5855,-2.3398 l -13.3497,-2.57574 -2.2587,2.25875 -2.2588,2.25874 14.6726,14.60286 c 8.0698,8.03158 14.8987,14.60287 15.1753,14.60287 0.2765,0 1.6085,-1.05469 2.9599,-2.34375 z m 24.8977,-24.92018 c 7.0833,-7.4353 9.078,-11.32117 9.0688,-17.66675 -0.01,-5.97876 -2.0982,-11.06329 -6.2613,-15.23597 -4.2382,-4.24804 -10.1618,-6.47752 -16.1255,-6.06916 -5.7563,0.39415 -10.5773,3.10607 -16.897,9.50501 l -3.4205,3.46343 14.6299,14.60853 c 8.0465,8.03469 14.9256,14.60853 15.287,14.60853 0.3614,0 2.0348,-1.44613 3.7186,-3.21362 z"
           id="path794"
           transform="scale(0.26458333)" /></g><path
         style="fill:#ff6600;stroke-width:0.37981"
         d="m 1215.682,358.17576 -4.1464,-4.09103 1.3917,-1.41262 c 1.9292,-1.95833 2.765,-2.40813 3.9712,-2.13711 0.8109,0.18219 0.9999,0.40174 1.1042,1.28315 0.1394,1.17674 -0.1146,1.67016 -1.7154,3.3322 l -1.4416,1.49672 1.3041,1.29809 1.3041,1.29809 1.1425,-1.09051 c 1.4693,-1.40231 2.0439,-1.82955 2.7002,-2.00755 0.7211,-0.19555 1.7352,0.006 2.0627,0.41083 0.3391,0.41882 0.3513,1.74135 0.022,2.38543 -0.3343,0.65374 -2.9818,3.32535 -3.2953,3.32535 -0.1416,0 -2.1233,-1.84097 -4.4039,-4.09104 z"
         id="path972"
         transform="scale(0.26458333)" /><path
         style="fill:#ff6600;stroke-width:0.37981"
         d="m 1235.3797,333.06002 -1.4313,-1.39757 2.3793,-2.38469 2.3794,-2.38469 1.4662,1.46066 1.4661,1.46066 -1.5749,1.58769 c -0.8662,0.87324 -1.9526,1.91796 -2.4142,2.32161 l -0.8392,0.7339 z"
         id="path974"
         transform="scale(0.26458333)" /><path
         style="fill:#ff6600;stroke-width:0.37981"
         d="m 1263.8972,316.65837 c -1.2124,-1.00543 -5.7267,-5.63525 -6.575,-6.74327 -0.7704,-1.00634 -0.7432,-1.10338 0.5032,-1.7935 2.875,-1.59194 4.9493,-1.38682 7.1921,0.71119 1.0808,1.01106 1.9177,2.51711 2.0566,3.70106 0.1379,1.17493 -0.7385,3.47074 -1.7475,4.57778 -0.1652,0.18128 -0.342,0.3296 -0.3929,0.3296 -0.051,0 -0.5172,-0.35229 -1.0365,-0.78286 z"
         id="path976"
         transform="scale(0.26458333)" /></g></g></svg>
