<?xml version="1.0" encoding="UTF-8" standalone="no"?>
<!-- Created with Inkscape (http://www.inkscape.org/) -->

<svg
   width="31.383179mm"
   height="31.383209mm"
   viewBox="0 0 31.383179 31.383209"
   version="1.1"
   id="svg5"
   xml:space="preserve"
   xmlns:inkscape="http://www.inkscape.org/namespaces/inkscape"
   xmlns:sodipodi="http://sodipodi.sourceforge.net/DTD/sodipodi-0.dtd"
   xmlns="http://www.w3.org/2000/svg"
   xmlns:svg="http://www.w3.org/2000/svg"><sodipodi:namedview
     id="namedview7"
     pagecolor="#505050"
     bordercolor="#eeeeee"
     borderopacity="1"
     inkscape:showpageshadow="0"
     inkscape:pageopacity="0"
     inkscape:pagecheckerboard="0"
     inkscape:deskcolor="#505050"
     inkscape:document-units="mm"
     showgrid="false" /><defs
     id="defs2" /><g
     inkscape:label="Layer 1"
     inkscape:groupmode="layer"
     id="layer1"
     transform="translate(-314.425,-155.87057)"><rect
       style="fill:none;stroke-width:0.686001"
       id="rect2761"
       width="31.383205"
       height="31.383205"
       x="314.42499"
       y="155.87057"
       inkscape:export-filename="branding.svg"
       inkscape:export-xdpi="96"
       inkscape:export-ydpi="96" /><g
       id="g1108"
       style="fill:#333333"
       transform="matrix(0.45119411,0,0,0.45119411,134.61405,130.80426)"><path
         style="fill:#333333;stroke-width:0.264583"
         d="M 405.13087,103.6695 V 90.71738 l -1.25677,0.13703 c -1.56477,0.17062 -2.85769,-0.47222 -3.55144,-1.76578 -0.64283,-1.19862 -0.6097,-2.27826 0.11185,-3.6451 0.54888,-1.03973 1.84272,-1.92268 16.58603,-11.318748 8.88642,-5.663407 16.1744,-10.141208 16.40417,-10.078869 0.85268,0.231346 31.40488,19.864127 32.20951,20.697767 2.68551,2.78232 0.0709,7.13482 -3.68408,6.13284 l -0.72761,-0.19416 v 12.96963 12.96963 h -1.05591 -1.0559 l -0.0686,-13.42761 -0.0686,-13.42761 -3.22506,-2.11666 c -1.77379,-1.16417 -7.24335,-4.61698 -12.1546,-7.67292 -4.91124,-3.05594 -9.20842,-5.734843 -9.54929,-5.953124 -0.55451,-0.355091 -0.6955,-0.351674 -1.33915,0.03246 -3.31422,1.977914 -21.78419,13.373254 -23.34127,14.400774 l -1.98438,1.30948 -0.0686,13.4276 -0.0686,13.42761 h -1.0559 -1.05591 z m 11.1125,11.23232 c 0,-0.52397 -0.13356,-0.66145 -0.64256,-0.66145 -1.35167,0 -1.47397,-0.44558 -1.47578,-5.37672 l -0.002,-4.54516 -0.80307,-0.45702 c -0.92833,-0.52832 -1.6171,-1.95139 -1.39136,-2.87473 0.34932,-1.42877 1.99363,-2.50362 3.42055,-2.23593 l 0.8939,0.1677 v -2.66985 c 0,-2.48187 0.0457,-2.71557 0.64943,-3.31928 l 0.64943,-0.64943 h 6.20042 c 7.82483,0 7.41224,-0.21258 7.5376,3.88363 l 0.0879,2.87307 1.00226,-0.0956 c 1.95989,-0.1869 3.6885,1.44974 3.31712,3.14062 -0.15916,0.72463 -1.47182,2.10451 -2.002,2.10451 -0.13998,0 -0.24429,1.96896 -0.24429,4.61131 0,5.00312 -0.11909,5.44286 -1.4741,5.44286 -0.50901,0 -0.64256,0.13748 -0.64256,0.66145 0,0.52917 -0.1323,0.66146 -0.66146,0.66146 -0.52917,0 -0.66146,-0.13229 -0.66146,-0.66146 v -0.66145 h -6.21771 -6.21771 v 0.66145 c 0,0.52917 -0.13229,0.66146 -0.66146,0.66146 -0.52916,0 -0.66145,-0.13229 -0.66145,-0.66146 z m 0.52916,-7.85052 c 0,-7.24345 -0.0307,-7.36302 -1.89309,-7.36302 -2.33811,0 -2.93904,2.90238 -0.75833,3.66258 l 0.79934,0.27865 v 4.73216 c 0,2.60269 0.0794,4.81154 0.17639,4.90856 0.097,0.097 0.51373,0.17639 0.92604,0.17639 h 0.74965 z m 12.96459,2.82344 v -3.57187 h -5.95313 -5.95312 v 3.57187 3.57188 h 5.95312 5.95313 z m 2.85023,-1.388 0.0721,-4.82759 0.91066,-0.3805 c 1.46738,-0.61311 1.63057,-2.65683 0.26193,-3.28042 -0.99862,-0.45501 -1.80347,-0.37983 -2.45754,0.22953 -0.56465,0.52605 -0.57906,0.69764 -0.57906,6.89593 v 6.35645 l 0.8599,-0.0829 0.85989,-0.0829 z m -2.85023,-3.63908 v -0.66146 h -5.95313 -5.95312 v 0.66146 0.66146 h 5.95312 5.95313 z m 0.002,-2.71198 c 8e-4,-0.5457 0.17949,-1.33322 0.39688,-1.75004 0.27663,-0.53033 0.39529,-1.5828 0.39529,-3.50573 0,-4.00705 0.3622,-3.80621 -6.86417,-3.80621 -5.69964,0 -5.81336,0.0107 -6.21771,0.58804 -0.56923,0.8127 -0.58118,5.64143 -0.0166,6.7239 0.21738,0.41682 0.39598,1.20434 0.39688,1.75004 l 0.002,0.99219 h 5.95312 5.95313 z m 15.07967,13.03073 c 0,-0.28663 0.29398,-0.39688 1.05833,-0.39688 h 1.05833 v -5.82083 -5.82083 h 0.66146 0.66146 v 5.82083 5.82083 h 1.05833 c 0.76436,0 1.05834,0.11025 1.05834,0.39688 0,0.32758 -0.48507,0.39687 -2.77813,0.39687 -2.29305,0 -2.77812,-0.0693 -2.77812,-0.39687 z m -2.37655,-13.69219 c 0.003,-0.1819 0.46181,-1.9976 1.02052,-4.0349 l 1.01582,-3.70416 h 3.11595 3.11595 l 1.01031,3.70416 c 0.55567,2.0373 1.01597,3.853 1.0229,4.0349 0.01,0.25371 -1.18895,0.33073 -5.14678,0.33073 -3.95361,0 -5.15828,-0.0773 -5.15467,-0.33073 z m 14.87811,-26.989559 -3.77031,-1.818837 v -3.558183 -3.558183 l 3.77031,0.172686 c 2.07367,0.09498 3.80265,0.198473 3.84218,0.229993 0.0395,0.03152 0.0395,2.373469 0,5.204334 l -0.0719,5.147029 z"
         id="path1100" /><path
         style="fill:#ff6600;fill-opacity:1;stroke-width:1.64273"
         d="m 1675.6738,384.12037 c -2.3331,-0.18398 -3.0009,-0.47869 -2.9713,-1.31137 0.021,-0.59073 1.6759,-7.06143 3.6776,-14.37934 l 3.6395,-13.30528 h 11.6832 11.6831 l 3.3193,12.29237 c 1.8255,6.7608 3.4901,13.2037 3.6991,14.31754 l 0.3799,2.02518 -4.3291,0.4088 c -4.4062,0.41608 -25.3095,0.38355 -30.7813,-0.0479 z"
         id="path1102"
         transform="scale(0.26458333)" /></g></g></svg>
