<?xml version="1.0" encoding="UTF-8" standalone="no"?>
<!-- Created with Inkscape (http://www.inkscape.org/) -->

<svg
   width="31.383179mm"
   height="31.383194mm"
   viewBox="0 0 31.383179 31.383194"
   version="1.1"
   id="svg5"
   xml:space="preserve"
   xmlns:inkscape="http://www.inkscape.org/namespaces/inkscape"
   xmlns:sodipodi="http://sodipodi.sourceforge.net/DTD/sodipodi-0.dtd"
   xmlns="http://www.w3.org/2000/svg"
   xmlns:svg="http://www.w3.org/2000/svg"><sodipodi:namedview
     id="namedview7"
     pagecolor="#505050"
     bordercolor="#eeeeee"
     borderopacity="1"
     inkscape:showpageshadow="0"
     inkscape:pageopacity="0"
     inkscape:pagecheckerboard="0"
     inkscape:deskcolor="#505050"
     inkscape:document-units="mm"
     showgrid="false" /><defs
     id="defs2" /><g
     inkscape:label="Layer 1"
     inkscape:groupmode="layer"
     id="layer1"
     transform="translate(-314.425,-115.86357)"><rect
       style="fill:none;stroke-width:0.686001"
       id="rect2759"
       width="31.383205"
       height="31.383205"
       x="314.42499"
       y="115.86356"
       inkscape:export-filename="branding.svg"
       inkscape:export-xdpi="96"
       inkscape:export-ydpi="96" /><g
       id="g1086"
       transform="matrix(1.192741,0,0,1.192741,-117.35536,25.463717)"><path
         style="fill:#333333;stroke-width:0.111486"
         d="m 373.49199,99.820203 c -0.64385,-0.354806 -2.02349,-1.098539 -3.0659,-1.652719 -1.0424,-0.554191 -2.42205,-1.287782 -3.06588,-1.630194 -1.74688,-0.929057 -1.57089,-0.591897 -1.53557,-2.941943 l 0.0305,-2.028599 1.17062,0.677203 c 0.64383,0.372453 1.89806,1.096671 2.78716,1.609367 l 1.61656,0.932174 0.55744,-0.584669 c 0.30659,-0.321575 1.04446,-1.11103 1.63969,-1.75436 l 1.08226,-1.169669 0.004,4.598825 c 0.002,2.52936 -0.007,4.596771 -0.0232,4.594261 -0.0154,-0.002 -0.55465,-0.29488 -1.19848,-0.649677 z m 2.22973,-3.9815 v -4.656952 l 1.2029,1.273871 c 0.6616,0.700636 1.40471,1.49339 1.65135,1.761683 l 0.44846,0.487812 1.38666,-0.752817 c 0.76266,-0.414045 1.43684,-0.790213 1.49815,-0.835925 0.16172,-0.120536 2.61869,-1.449375 2.67986,-1.449375 0.0284,0 0.0516,0.898952 0.0516,1.997662 v 1.997673 l -0.36234,0.219678 c -0.19927,0.120814 -1.17758,0.65169 -2.17398,1.179705 -4.43229,2.348743 -5.46432,2.900436 -5.90881,3.158662 l -0.47382,0.27526 z m -6.07603,-3.242251 c -3.04184,-1.774237 -5.16162,-2.996611 -6.04661,-3.486782 -0.50502,-0.279705 -0.91719,-0.533651 -0.91593,-0.564311 10e-4,-0.03064 0.70135,-0.808275 1.55577,-1.728045 l 1.55348,-1.672298 -1.57038,-1.505079 -1.57038,-1.505068 2.32641,-1.197586 c 1.27953,-0.65866 3.33847,-1.721714 4.57544,-2.362333 l 2.24902,-1.164748 1.62273,1.219588 c 0.89252,0.670776 1.66194,1.219598 1.70984,1.219598 0.0479,0 0.86056,-0.551213 1.80593,-1.224915 l 1.71883,-1.224914 0.67707,0.375357 c 0.73514,0.407554 1.63659,0.881423 5.63822,2.96388 1.44097,0.749881 2.65449,1.395849 2.69673,1.435486 0.0423,0.03961 -0.62036,0.714973 -1.47243,1.500734 l -1.54921,1.428665 1.56169,1.797093 c 1.54153,1.773917 1.55836,1.799069 1.30519,1.949303 -0.14107,0.0837 -2.06048,1.148874 -4.26535,2.36702 l -4.00886,2.214821 -1.17527,-1.244792 c -0.6464,-0.684633 -1.4393,-1.525939 -1.76201,-1.869558 l -0.58674,-0.624744 0.69822,-0.365963 c 1.56621,-0.820894 4.5664,-2.424368 5.75047,-3.073399 l 1.2617,-0.691583 -1.70765,-0.948924 c -1.87442,-1.041597 -4.22557,-2.339178 -5.60514,-3.093436 l -0.88734,-0.485143 -0.78495,0.424229 c -1.17714,0.636178 -4.03601,2.211063 -5.83832,3.216161 l -1.59725,0.890753 1.48577,0.804059 c 0.81717,0.442228 2.48915,1.335928 3.7155,1.985994 1.22636,0.650067 2.2928,1.222096 2.36987,1.271171 0.0983,0.06256 -0.35808,0.63842 -1.52864,1.928763 -0.91781,1.011749 -1.7334,1.850065 -1.81242,1.862929 -0.079,0.01281 -0.79587,-0.357028 -1.593,-0.821983 z"
         id="path1080" /><path
         style="fill:#ff6600;stroke-width:0.807217"
         d="m 1396.466,349.36367 c -20.3665,-11.69244 -24.6069,-14.14463 -24.9512,-14.42906 -0.5002,-0.41335 -0.3377,-0.61488 6.073,-7.52836 l 5.1805,-5.58673 -5.8818,-5.65712 -5.8819,-5.65713 2.7825,-1.46565 c 1.5303,-0.80612 9.2271,-4.79514 17.1039,-8.86451 l 14.3214,-7.39885 4.203,3.14751 c 2.3117,1.73113 5.16,3.82573 6.3295,4.65466 l 2.1264,1.50714 2.855,-1.96459 c 1.5702,-1.08052 4.4894,-3.13229 6.4872,-4.55947 1.9978,-1.42718 3.7754,-2.59488 3.9502,-2.59488 0.1749,0 3.4439,1.65525 7.2645,3.67834 3.8206,2.02309 11.3246,5.97274 16.6757,8.777 5.3511,2.80426 9.7292,5.18466 9.7292,5.28977 0,0.19079 -5.1154,5.2339 -9.1223,8.99326 -2.1094,1.97912 -2.115,1.98894 -1.5266,2.64599 2.0307,2.2676 9.0896,10.50458 9.7975,11.43277 0.4683,0.61394 0.8514,1.25362 0.8514,1.42151 0,0.29115 -30.8367,17.53913 -31.3525,17.53649 -0.3184,-0.002 -12.8573,-13.26786 -12.8563,-13.60199 3e-4,-0.13814 3.7482,-2.23821 8.3282,-4.66681 14.5823,-7.73231 20.1546,-10.83131 20.0507,-11.15113 -0.056,-0.17123 -7.0108,-4.12761 -15.456,-8.79195 l -15.3547,-8.48063 -10.3817,5.70069 c -18.031,9.90095 -20.8094,11.47913 -20.6533,11.73162 0.084,0.13544 6.5214,3.65299 14.3059,7.81678 l 14.1538,7.57052 -0.5323,0.83973 c -1.5092,2.3804 -11.4682,13.03444 -12.1842,13.03444 -0.3016,0 -3.1972,-1.52071 -6.4347,-3.37936 z"
         id="path1082"
         transform="scale(0.26458333)" /></g></g></svg>
