<?xml version="1.0" encoding="UTF-8" standalone="no"?>
<!-- Created with Inkscape (http://www.inkscape.org/) -->

<svg
   width="31.383179mm"
   height="31.383209mm"
   viewBox="0 0 31.383179 31.383209"
   version="1.1"
   id="svg5"
   xml:space="preserve"
   xmlns:inkscape="http://www.inkscape.org/namespaces/inkscape"
   xmlns:sodipodi="http://sodipodi.sourceforge.net/DTD/sodipodi-0.dtd"
   xmlns="http://www.w3.org/2000/svg"
   xmlns:svg="http://www.w3.org/2000/svg"><sodipodi:namedview
     id="namedview7"
     pagecolor="#505050"
     bordercolor="#eeeeee"
     borderopacity="1"
     inkscape:showpageshadow="0"
     inkscape:pageopacity="0"
     inkscape:pagecheckerboard="0"
     inkscape:deskcolor="#505050"
     inkscape:document-units="mm"
     showgrid="false" /><defs
     id="defs2" /><g
     inkscape:label="Layer 1"
     inkscape:groupmode="layer"
     id="layer1"
     transform="translate(-314.425,-247.90139)"><rect
       style="fill:none;stroke-width:0.686001"
       id="rect2765"
       width="31.383205"
       height="31.383205"
       x="314.42499"
       y="247.9014"
       inkscape:export-filename="sound and video editing.svg"
       inkscape:export-xdpi="96"
       inkscape:export-ydpi="96" /><g
       id="g2778"
       transform="matrix(0.80063794,0,0,0.80063794,-189.39,178.34658)"><path
         id="path1851"
         style="fill:#000000;stroke-width:0.264583"
         d="m 663.25771,105.77339 v 0.78341 c 0.18752,-0.24971 0.69101,-0.29972 2.29185,-0.29972 1.60701,0 2.07046,0.0201 2.30063,0.29197 v -0.6351 l -0.59583,-2.06137 c -0.66161,-2.28966 -1.12386,-2.77341 -1.76992,-1.85105 -0.33035,0.47165 -0.4757,0.51759 -0.79736,0.25063 -0.53354,-0.44279 -0.75718,-0.0423 -1.15549,2.0686 z" /><path
         id="path1849"
         style="fill:#333333;stroke-width:0.264583"
         d="m 656.98729,105.77184 v 0.75499 c 0.0195,0.0193 0.0342,0.0392 0.0398,0.061 0.51397,2.01082 0.86443,2.71198 1.35444,2.71198 0.37819,0 0.73339,0.41519 1.2454,1.45521 0.39402,0.80036 0.9059,1.80244 1.1374,2.22673 0.36058,0.66084 0.47256,0.71775 0.78186,0.39688 0.19858,-0.20601 0.61719,-1.68434 0.93018,-3.28507 0.31299,-1.60073 0.62908,-3.11878 0.70228,-3.37344 0.0181,-0.0627 0.0435,-0.11601 0.0791,-0.1633 v -0.78341 l -0.0413,0.21911 h -3.09232 -3.09232 z" /><path
         id="path1847"
         style="fill:#000000;stroke-width:0.264583"
         d="m 650.34377,105.64833 v 0.93483 l 0.0599,-0.32608 h 3.26957 c 2.17901,0 3.11608,0.074 3.31401,0.26975 v -0.75499 l -0.28887,-1.43299 c -0.81314,-4.03239 -1.1849,-4.478048 -2.15336,-2.57969 -0.29696,0.58208 -0.71788,1.05834 -0.93534,1.05834 -0.21746,0 -0.62781,0.3819 -0.91158,0.84852 l -0.51573,0.84853 -0.40979,-0.98082 c -0.22537,-0.53938 -0.51809,-0.98082 -0.65009,-0.98082 -0.23278,0 -0.33213,0.3622 -0.67283,2.4474 z" /><path
         id="path1845"
         style="fill:#333333;stroke-width:0.264583"
         d="m 647.30312,105.53154 v 0.72554 h 0.0248 l 0.18397,2.03037 c 0.10119,1.11658 0.30602,2.25735 0.45475,2.53524 0.26132,0.48831 0.28212,0.48875 0.62477,0.0202 0.19499,-0.26668 0.51279,-0.48473 0.70642,-0.48473 0.23032,0 0.48263,-0.70904 0.72915,-2.05052 l 0.31678,-1.72444 v -0.93483 l -0.0563,0.34417 h -1.43816 c -1.15057,0 -1.40006,-0.0439 -1.54616,-0.46096 z" /><path
         id="path1843"
         style="fill:#000000;stroke-width:0.264583"
         d="m 644.97562,105.84315 v 1.11208 c 0.009,-0.12391 0.0172,-0.24828 0.0243,-0.36742 0.0126,-0.21102 0.43769,-0.33073 1.17408,-0.33073 h 1.12913 v -0.72554 c -0.0207,-0.059 -0.0391,-0.12561 -0.0579,-0.2005 -0.0913,-0.3638 -0.32221,-0.66146 -0.51315,-0.66146 -0.34365,0 -0.46542,-0.39527 -0.7953,-2.58072 -0.26087,-1.7283 -0.57598,-1.11274 -0.78548,1.53427 z" /><path
         id="path1841"
         style="fill:#333333;stroke-width:0.264583"
         d="m 642.50807,105.73773 v 0.72864 l 0.65319,3.36259 c 0.36739,1.89176 0.78724,3.43958 0.93276,3.43958 0.19458,0 0.69778,-3.65159 0.8816,-6.31331 v -1.11208 l -0.014,0.17622 -1.21595,-0.0796 -1.21595,-0.0796 z" /><path
         id="path1839"
         style="fill:#333333;stroke-width:0.264583"
         d="m 638.91862,105.67727 -0.0491,0.31523 h -4.4943 -4.49378 l 0.18242,0.7276 c 0.10034,0.40018 0.49996,1.38245 0.88832,2.18281 0.54711,1.12753 0.83026,1.44303 1.25625,1.40043 0.42455,-0.0424 0.69575,0.25609 1.19062,1.31155 0.7496,1.59875 1.09444,1.79109 1.52343,0.84956 0.2297,-0.50415 0.44576,-0.64286 0.817,-0.52503 0.60259,0.19125 0.78554,-0.0653 1.19838,-1.68 0.22267,-0.87092 0.44711,-1.22528 0.77773,-1.22628 0.55751,-0.002 0.82551,-0.45419 1.0666,-1.79576 l 0.13642,-0.75706 z" /><path
         id="path1837"
         style="fill:#ff6600;stroke-width:0.264583"
         d="m 638.91862,105.67727 v 0.80305 l 0.0444,-0.24649 1.76475,0.0775 1.76526,0.078 0.015,0.077 v -0.72864 l -0.44649,-2.52336 c -0.61176,-3.456148 -0.71009,-3.836457 -0.99425,-3.836457 -0.13119,0 -0.31666,0.386954 -0.41186,0.859897 -0.30725,1.52655 -0.41875,1.76139 -0.7736,1.62522 -0.25575,-0.0981 -0.43734,0.43419 -0.68058,1.99781 z" /><path
         style="fill:#ff6600;stroke:#00ff00;stroke-width:0.0791529;stroke-dasharray:none"
         d="m 2437.7122,401.68263 c 0,-1.46704 1.0414,-13.29863 1.3736,-15.60681 0.1824,-1.26703 0.5023,-2.68065 0.7108,-3.14138 l 0.3791,-0.83771 0.3262,0.74805 c 0.1794,0.41142 0.6669,2.74398 1.0833,5.18346 1.0366,6.07311 1.5102,7.57644 2.3864,7.57644 0.6011,0 1.5034,0.82454 1.9299,1.76365 0.2672,0.58823 0.3894,1.35182 0.3926,2.45262 v 1.59846 l -3.4045,0.0822 c -2.932,0.0708 -3.5279,0.14321 -4.2933,0.52188 l -0.8887,0.43969 z"
         id="path2061"
         transform="scale(0.26458333)" /><path
         style="fill:#ff6600;stroke:#00ff00;stroke-width:0.0791529;stroke-dasharray:none"
         d="m 2482.0057,402.07656 c -1.2298,-0.37923 -6.8251,-0.59941 -15.3404,-0.60366 l -8.6388,-0.004 v -0.85524 c 0,-1.07693 1.3684,-9.33021 1.8027,-10.87259 0.4091,-1.45288 0.8261,-2.11706 1.2316,-1.96147 0.5078,0.19486 1.6782,2.25026 2.7361,4.80501 0.5449,1.31566 1.0623,2.3921 1.15,2.3921 0.088,0 0.7506,-0.96209 1.4733,-2.13798 1.5306,-2.49076 2.8173,-3.83645 3.9635,-4.14508 0.9853,-0.2653 2.227,-1.60713 3.2913,-3.5565 2.1061,-3.85759 3.0958,-4.91176 4.0101,-4.27131 1.2519,0.8768 2.2494,4.06367 4.2036,13.42862 0.9871,4.73049 1.3615,8.04675 0.9024,7.99414 -0.086,-0.01 -0.4398,-0.10518 -0.7854,-0.21173 z"
         id="path2063"
         transform="scale(0.26458333)" /><path
         style="fill:#ff6600;stroke:#00ff00;stroke-width:0.0791529;stroke-dasharray:none"
         d="m 2506.8226,401.27992 c 0,-1.21089 1.7928,-10.72317 2.3954,-12.70951 0.3896,-1.28421 1.15,-2.46582 1.6486,-2.56184 0.2003,-0.0386 0.8022,0.21993 1.3374,0.57447 0.5353,0.35454 1.0912,0.64462 1.2354,0.64462 0.3862,0 1.3967,-0.90691 2.0323,-1.82404 0.3059,-0.44141 0.8408,-0.97074 1.1888,-1.17628 1.8047,-1.06607 3.1003,1.31995 5.8419,10.75896 0.9816,3.37975 1.4931,5.5057 1.4931,6.20592 v 1.06508 l -0.89,-0.31731 c -0.6609,-0.2356 -2.1575,-0.34325 -5.8116,-0.41802 -5.2136,-0.10669 -8.8041,0.12997 -9.8443,0.64885 l -0.627,0.31279 z"
         id="path2065"
         transform="scale(0.26458333)" /></g></g></svg>
